<svg width="25" height="24" viewBox="0 0 25 24" fill="none" xmlns="http://www.w3.org/2000/svg">
<mask id="mask0_3019_11116" style="mask-type:luminance" maskUnits="userSpaceOnUse" x="4" y="3" width="18" height="18">
<path d="M12.9609 19.6875C13.9707 19.6888 14.9707 19.4905 15.9035 19.1041C16.8364 18.7177 17.6837 18.1507 18.3967 17.4358C19.1117 16.7228 19.6786 15.8755 20.0651 14.9426C20.4515 14.0097 20.6497 13.0097 20.6484 12C20.6497 10.9903 20.4514 9.99024 20.065 9.05739C19.6786 8.12453 19.1117 7.27723 18.3967 6.56417C17.6837 5.84925 16.8364 5.28228 15.9035 4.89587C14.9707 4.50945 13.9707 4.3112 12.9609 4.31251C11.9512 4.31122 10.9512 4.50948 10.0183 4.8959C9.08547 5.28231 8.23816 5.84926 7.52511 6.56417C6.8102 7.27723 6.24325 8.12453 5.85683 9.05739C5.47042 9.99024 5.27216 10.9903 5.27344 12C5.27214 13.0097 5.47039 14.0097 5.8568 14.9426C6.24322 15.8755 6.81018 16.7228 7.52511 17.4358C8.23816 18.1507 9.08547 18.7177 10.0183 19.1041C10.9512 19.4905 11.9512 19.6888 12.9609 19.6875Z" fill="white" stroke="white" stroke-width="2" stroke-linejoin="round"/>
<path d="M9.88574 12.0016L12.192 14.3078L16.8045 9.69531" stroke="black" stroke-width="2" stroke-linecap="round" stroke-linejoin="round"/>
</mask>
<g mask="url(#mask0_3019_11116)">
<path d="M0.960938 0H24.9609V24H0.960938V0Z" fill="white"/>
</g>
</svg>
